<svg width="589" height="559" viewBox="0 0 589 559" fill="none" xmlns="http://www.w3.org/2000/svg">
<g filter="url(#filter0_i_2205_75)">
<path d="M219.536 515.607H369.464L390.882 559H198.118L219.536 515.607Z" fill="#915E39"/>
<path d="M5.35454 6.38128H583.645V524.541H5.35454V6.38128Z" fill="#915E39"/>
<path d="M10.7091 0H578.291V518.16H10.7091V0Z" fill="#F7DFC5"/>
<path d="M565.507 502.925H569.858L575.948 512.257L579.429 516.405L576.818 519.516L573.338 515.368L565.507 508.109V502.925Z" fill="#915E39"/>
<path d="M23.4931 502.925H19.1425L13.0517 512.257L9.57125 516.405L12.1816 519.516L15.662 515.368L23.4931 508.109V502.925Z" fill="#915E39"/>
<path d="M229.175 509.226H359.825L381.244 552.619H207.756L229.175 509.226Z" fill="#F7DFC5"/>
<path d="M231.885 518.16H358.186L371.605 546.237H217.395L231.885 518.16Z" fill="#EBC091"/>
</g>
<defs>
<filter id="filter0_i_2205_75" x="0" y="0" width="589" height="560" filterUnits="userSpaceOnUse" color-interpolation-filters="sRGB">
<feFlood flood-opacity="0" result="BackgroundImageFix"/>
<feBlend mode="normal" in="SourceGraphic" in2="BackgroundImageFix" result="shape"/>
<feColorMatrix in="SourceAlpha" type="matrix" values="0 0 0 0 0 0 0 0 0 0 0 0 0 0 0 0 0 0 127 0" result="hardAlpha"/>
<feOffset dy="1"/>
<feGaussianBlur stdDeviation="10"/>
<feComposite in2="hardAlpha" operator="arithmetic" k2="-1" k3="1"/>
<feColorMatrix type="matrix" values="0 0 0 0 0.743333 0 0 0 0 0.517348 0 0 0 0 0.353703 0 0 0 1 0"/>
<feBlend mode="normal" in2="shape" result="effect1_innerShadow_2205_75"/>
</filter>
</defs>
</svg>
