<svg width="26" height="18" viewBox="0 0 26 18" fill="none" xmlns="http://www.w3.org/2000/svg">
<path d="M-0.00219727 15.6357V0.166992H4.25171C5.36499 0.166992 6.20288 0.477539 6.76538 1.09863C7.32788 1.71387 7.60913 2.61621 7.60913 3.80566V11.0479C7.60913 12.5127 7.35132 13.6436 6.83569 14.4404C6.32593 15.2373 5.42944 15.6357 4.14624 15.6357H-0.00219727ZM3.10913 12.9023H3.64526C4.21362 12.9023 4.4978 12.627 4.4978 12.0762V4.0957C4.4978 3.58008 4.42749 3.24902 4.28687 3.10254C4.1521 2.9502 3.87378 2.87402 3.4519 2.87402H3.10913V12.9023Z" fill="#070808"/>
<path d="M11.5814 15.7764C10.849 15.7764 10.2894 15.6064 9.90272 15.2666C9.52186 14.9268 9.26112 14.4609 9.1205 13.8691C8.97987 13.2773 8.90956 12.6064 8.90956 11.8564C8.90956 11.0537 8.98866 10.3975 9.14686 9.8877C9.30507 9.37207 9.5746 8.9502 9.95546 8.62207C10.3422 8.29395 10.8725 8.01562 11.5463 7.78711L13.4975 7.11914V5.76562C13.4975 5.05664 13.266 4.70215 12.8031 4.70215C12.3812 4.70215 12.1703 4.98926 12.1703 5.56348V6.35449H9.11171C9.10585 6.30762 9.10292 6.24902 9.10292 6.17871C9.10292 6.10254 9.10292 6.01758 9.10292 5.92383C9.10292 4.61133 9.41054 3.68262 10.0258 3.1377C10.6469 2.58691 11.6283 2.31152 12.9701 2.31152C13.6732 2.31152 14.3031 2.4375 14.8598 2.68945C15.4164 2.93555 15.8559 3.30176 16.1781 3.78809C16.5062 4.27441 16.6703 4.875 16.6703 5.58984V15.6357H13.5414V14.0713C13.3891 14.6221 13.1371 15.0439 12.7855 15.3369C12.434 15.6299 12.0326 15.7764 11.5814 15.7764ZM12.8207 13.333C13.0785 13.333 13.2543 13.2246 13.348 13.0078C13.4418 12.791 13.4887 12.5566 13.4887 12.3047V8.63086C13.0551 8.80664 12.7182 9.0293 12.4779 9.29883C12.2377 9.5625 12.1176 9.95215 12.1176 10.4678V12.1641C12.1176 12.9434 12.3519 13.333 12.8207 13.333Z" fill="#070808"/>
<path d="M17.9883 17.833V15.8379H19.5C19.7285 15.8379 19.8428 15.7588 19.8428 15.6006C19.8428 15.5186 19.834 15.4336 19.8164 15.3457L17.751 2.45215H20.7657L21.6446 12.1553L22.6817 2.45215H25.7139L23.2705 16.3213C23.1826 16.8193 23.0127 17.1943 22.7608 17.4463C22.5147 17.7041 22.1075 17.833 21.5391 17.833H17.9883Z" fill="#070808"/>
</svg>
