<svg width="724" height="31" viewBox="0 0 724 31" fill="none" xmlns="http://www.w3.org/2000/svg">
<rect y="9" width="724" height="14" rx="7" fill="#F7DFC5"/>
<rect x="115" y="12" width="184" height="8" rx="4" fill="#E69244"/>
<path d="M103 15.5C103 6.93959 109.94 0 118.5 0C127.06 0 134 6.93959 134 15.5C134 24.0604 127.06 31 118.5 31C109.94 31 103 24.0604 103 15.5Z" fill="#E69244"/>
<path d="M107 15.5C107 9.14873 112.149 4 118.5 4C124.851 4 130 9.14873 130 15.5C130 21.8513 124.851 27 118.5 27C112.149 27 107 21.8513 107 15.5Z" fill="#F7DFC5"/>
<path d="M281 15.5C281 6.93959 287.94 0 296.5 0C305.06 0 312 6.93959 312 15.5C312 24.0604 305.06 31 296.5 31C287.94 31 281 24.0604 281 15.5Z" fill="#E69244"/>
<path d="M285 15.5C285 9.14873 290.149 4 296.5 4C302.851 4 308 9.14873 308 15.5C308 21.8513 302.851 27 296.5 27C290.149 27 285 21.8513 285 15.5Z" fill="#F7DFC5"/>
</svg>
