<svg width="46" height="20" viewBox="0 0 46 20" fill="none" xmlns="http://www.w3.org/2000/svg">
<path d="M0.688477 19.4531V0.546875H4.34082V19.4531H0.688477Z" fill="white"/>
<path d="M5.84473 19.4531V0.546875H9.7334L11.4736 9.60254V0.546875H15.126V19.4531H11.4307L9.54004 10V19.4531H5.84473Z" fill="white"/>
<path d="M16.6299 19.4531V0.546875H20.2822V19.4531H16.6299Z" fill="white"/>
<path d="M21.292 19.4531V16.0156L25.6211 4.02734H21.7109V0.546875H29.6064V3.85547L25.2021 15.9727H29.4238V19.4531H21.292Z" fill="white"/>
<path d="M30.6377 19.4531V0.546875H34.29V19.4531H30.6377Z" fill="white"/>
<path d="M35.2783 19.4531L37.1045 0.546875H43.5176L45.3115 19.4531H41.7344L41.4658 16.4023H39.1885L38.9521 19.4531H35.2783ZM39.457 13.3838H41.1758L40.3486 3.76953H40.1768L39.457 13.3838Z" fill="white"/>
</svg>
