<svg width="35" height="34" viewBox="0 0 35 34" fill="none" xmlns="http://www.w3.org/2000/svg">
<path d="M19.376 27.2047C19.4062 24.1113 18.622 21.5958 17.6244 21.586C16.6267 21.5763 15.7935 24.076 15.7633 27.1693C15.733 30.2627 16.5173 32.7783 17.5149 32.788C18.5125 32.7978 19.3458 30.2981 19.376 27.2047Z" fill="#F7DFC5"/>
<path d="M13.5903 26.5021C15.2883 23.9162 15.9887 21.376 15.1547 20.8284C14.3208 20.2808 12.2682 21.9332 10.5703 24.5191C8.87233 27.105 8.17193 29.6451 9.00586 30.1928C9.83985 30.7404 11.8923 29.088 13.5903 26.5021Z" fill="#F7DFC5"/>
<path d="M9.09573 22.7921C11.9223 21.5348 13.8849 19.7767 13.4794 18.8651C13.0739 17.9535 10.4539 18.2338 7.62739 19.4911C4.80089 20.7483 2.83826 22.5065 3.24373 23.418C3.64919 24.3296 6.26922 24.0493 9.09573 22.7921Z" fill="#F7DFC5"/>
<path d="M13.1402 16.3088C13.2919 15.3227 10.9364 14.1418 7.87891 13.6712C4.82137 13.2006 2.21974 13.6185 2.06798 14.6046C1.91621 15.5906 4.27177 16.7714 7.32928 17.242C10.3868 17.7127 12.9884 17.2948 13.1402 16.3088Z" fill="#F7DFC5"/>
<path d="M14.2379 13.9597C14.8986 13.2122 13.5551 10.9455 11.2371 8.89686C8.91918 6.84826 6.5045 5.79354 5.84381 6.5411C5.18313 7.28866 6.52663 9.5554 8.84463 11.604C11.1626 13.6526 13.5773 14.7073 14.2379 13.9597Z" fill="#F7DFC5"/>
<path d="M16.424 12.5869C17.384 12.3153 17.4793 9.68199 16.6371 6.70538C15.7948 3.72874 14.3337 1.53592 13.3737 1.80757C12.4138 2.07921 12.3184 4.71245 13.1607 7.68912C14.003 10.6657 15.464 12.8586 16.424 12.5869Z" fill="#F7DFC5"/>
<path d="M22.3606 7.78172C23.2614 4.82227 23.218 2.18765 22.2636 1.89713C21.3091 1.6066 19.8051 3.77019 18.9043 6.72963C18.0035 9.68906 18.0469 12.3237 19.0013 12.6142C19.9558 12.9047 21.4598 10.7412 22.3606 7.78172Z" fill="#F7DFC5"/>
<path d="M26.6021 11.7805C28.9597 9.77763 30.3473 7.53758 29.7013 6.77728C29.0554 6.01696 26.6205 7.0243 24.263 9.02715C21.9054 11.0301 20.5179 13.2701 21.1638 14.0304C21.8097 14.7908 24.2446 13.7835 26.6021 11.7805Z" fill="#F7DFC5"/>
<path d="M28.0046 17.4394C31.0709 17.0292 33.4492 15.895 33.3169 14.9061C33.1847 13.9173 30.5918 13.4483 27.5255 13.8584C24.4594 14.2686 22.081 15.4028 22.2133 16.3917C22.3456 17.3805 24.9384 17.8496 28.0046 17.4394Z" fill="#F7DFC5"/>
<path d="M31.9602 23.7007C32.3836 22.7973 30.456 21.0008 27.6549 19.688C24.8537 18.3753 22.2397 18.0434 21.8164 18.9468C21.393 19.8502 23.3206 21.6467 26.1217 22.9595C28.9229 24.2722 31.5369 24.6041 31.9602 23.7007Z" fill="#F7DFC5"/>
<path d="M26.0681 30.3662C26.9127 29.8352 26.2625 27.2817 24.6159 24.6628C22.9693 22.0439 20.9497 20.3515 20.1051 20.8825C19.2606 21.4135 19.9107 23.967 21.5574 26.5859C23.204 29.2048 25.2235 30.8973 26.0681 30.3662Z" fill="#F7DFC5"/>
</svg>
