<svg width="38" height="20" viewBox="0 0 38 20" fill="none" xmlns="http://www.w3.org/2000/svg">
<path d="M0.313721 17.1631V1.69434H3.49536L4.91919 9.10352V1.69434H7.90747V17.1631H4.88403L3.33716 9.42871V17.1631H0.313721Z" fill="#070808"/>
<path d="M9.56825 3.1709V0.551758H12.7147V3.1709H9.56825ZM9.56825 17.1631V3.97949H12.7147V17.1631H9.56825Z" fill="#070808"/>
<path d="M17.8736 19.4482C17.2642 19.4482 16.7398 19.416 16.3003 19.3516C15.8667 19.293 15.4771 19.1846 15.1314 19.0264C14.7857 18.8682 14.44 18.6455 14.0943 18.3584L15.1577 16.5391C15.9253 16.9961 16.6929 17.2246 17.4605 17.2246C17.9644 17.2246 18.3394 17.0635 18.5855 16.7412C18.8316 16.4189 18.9546 16 18.9546 15.4844V14.1924C18.7027 15.0947 18.0318 15.5459 16.9419 15.5459C16.315 15.5459 15.8081 15.3965 15.4214 15.0977C15.0347 14.7988 14.7534 14.3945 14.5777 13.8848C14.4019 13.375 14.314 12.8066 14.314 12.1797V7.44238C14.314 6.7334 14.3902 6.10938 14.5425 5.57031C14.6949 5.02539 14.9615 4.60059 15.3423 4.2959C15.7232 3.99121 16.2564 3.83887 16.9419 3.83887C17.522 3.83887 17.9732 3.98535 18.2954 4.27832C18.6236 4.57129 18.8433 4.9668 18.9546 5.46484V3.97949H22.1626V15.2822C22.1626 16.7764 21.8169 17.8428 21.1255 18.4814C20.44 19.126 19.356 19.4482 17.8736 19.4482ZM18.2163 13.1729C18.7085 13.1729 18.9546 12.7275 18.9546 11.8369V7.35449C18.9546 7.11426 18.8843 6.86816 18.7437 6.61621C18.6089 6.36426 18.4214 6.23828 18.1812 6.23828C17.8765 6.23828 17.6861 6.35254 17.6099 6.58105C17.5337 6.80371 17.4956 7.06152 17.4956 7.35449V11.8369C17.4956 12.1533 17.5337 12.4551 17.6099 12.7422C17.6919 13.0293 17.8941 13.1729 18.2163 13.1729Z" fill="#070808"/>
<path d="M23.7531 17.1631V1.69434H26.9875V5.28906C27.1574 4.79688 27.4181 4.43359 27.7697 4.19922C28.1213 3.95898 28.5314 3.83887 29.0002 3.83887C29.9142 3.83887 30.5793 4.12598 30.9953 4.7002C31.4113 5.27441 31.6193 6.04492 31.6193 7.01172V17.1631H28.4377V7.21387C28.4377 6.92676 28.3761 6.69238 28.2531 6.51074C28.1359 6.3291 27.9484 6.23828 27.6906 6.23828C27.4738 6.23828 27.3009 6.33203 27.172 6.51953C27.049 6.70703 26.9875 6.92969 26.9875 7.1875V17.1631H23.7531Z" fill="#070808"/>
<path d="M35.9256 17.3037C35.076 17.3037 34.5018 17.125 34.2029 16.7676C33.91 16.4043 33.7635 15.8506 33.7635 15.1064V6.88867H32.8758V4.48926H33.7635V1.69434H36.8221V4.48926H37.7098V6.88867H36.8221V14.3682C36.8221 14.585 36.8572 14.7373 36.9275 14.8252C36.9979 14.9131 37.1326 14.957 37.3318 14.957C37.4725 14.957 37.5984 14.9453 37.7098 14.9219V17.0664C37.6395 17.0898 37.4197 17.1338 37.0506 17.1982C36.6815 17.2686 36.3065 17.3037 35.9256 17.3037Z" fill="#070808"/>
</svg>
