<svg width="24" height="16" viewBox="0 0 24 16" fill="none" xmlns="http://www.w3.org/2000/svg">
<path d="M19.757 10.4258C20.0043 10.3858 20.2656 10.4088 20.4877 10.49C20.7099 10.5711 20.876 10.7044 20.9522 10.8625C21.0283 11.0206 21.0089 11.1917 20.8977 11.3408C20.7865 11.4899 20.5921 11.6058 20.354 11.6648L20.243 11.6875L4.243 14.2891C3.99573 14.329 3.73436 14.306 3.51225 14.2249C3.29014 14.1437 3.12403 14.0105 3.04784 13.8523C2.97166 13.6942 2.99113 13.5232 3.1023 13.3741C3.21346 13.225 3.40793 13.1091 3.646 13.0501L3.757 13.0273L19.757 10.4258Z" fill="black"/>
<path d="M3.03 10.8986C3.08948 10.744 3.23416 10.609 3.43656 10.5192C3.63896 10.4294 3.885 10.3911 4.128 10.4115L4.243 10.4258L20.243 13.0273C20.4905 13.0675 20.705 13.1678 20.8426 13.3075C20.9802 13.4472 21.0305 13.6158 20.9833 13.7788C20.936 13.9419 20.7947 14.087 20.5883 14.1845C20.3819 14.282 20.126 14.3246 19.873 14.3034L19.757 14.2891L3.757 11.6875C3.49974 11.6456 3.27863 11.5389 3.14229 11.391C3.00595 11.243 2.96556 11.0659 3.03 10.8986Z" fill="black"/>
<path d="M13.553 1.36972C9.379 2.72644 7 4.85452 7 7.1543C7 8.01677 7.52678 8.84392 8.46447 9.45377C9.40215 10.0636 10.6739 10.4062 12 10.4062C13.3261 10.4062 14.5979 10.0636 15.5355 9.45377C16.4732 8.84392 17 8.01677 17 7.1543C17 6.47334 16.812 5.97839 16.394 5.39499L16.225 5.17061L15.895 4.7498C15.274 3.94332 15 3.22919 15 1.95117C14.9999 1.84035 14.9563 1.73138 14.8733 1.63461C14.7902 1.53783 14.6706 1.45646 14.5256 1.39821C14.3806 1.33997 14.2152 1.30677 14.045 1.30179C13.8748 1.2968 13.7054 1.32019 13.553 1.36972Z" fill="black"/>
</svg>
