<svg width="20" height="20" viewBox="0 0 20 20" fill="none" xmlns="http://www.w3.org/2000/svg">
<path d="M9.99889 17.0006C10.2438 17.0006 10.4802 17.0906 10.6633 17.2533C10.8463 17.4161 10.9632 17.6404 10.9919 17.8836L10.9989 18.0006V19.0006C10.9986 19.2555 10.901 19.5006 10.726 19.686C10.5511 19.8713 10.3119 19.9828 10.0575 19.9978C9.80306 20.0127 9.55251 19.9299 9.35706 19.7663C9.16161 19.6028 9.036 19.3707 9.00589 19.1176L8.99889 19.0006V18.0006C8.99889 17.7354 9.10425 17.481 9.29179 17.2935C9.47932 17.106 9.73368 17.0006 9.99889 17.0006Z" fill="black"/>
<path d="M16.3119 14.9106L16.4059 14.9936L17.1059 15.6936C17.2852 15.8736 17.3894 16.115 17.3971 16.369C17.4049 16.6229 17.3157 16.8703 17.1476 17.0609C16.9796 17.2515 16.7453 17.3709 16.4924 17.395C16.2395 17.4191 15.9869 17.346 15.7859 17.1906L15.6919 17.1076L14.9919 16.4076C14.8193 16.2353 14.7156 16.006 14.7004 15.7626C14.6851 15.5193 14.7592 15.2787 14.9088 15.0862C15.0585 14.8937 15.2733 14.7625 15.5129 14.7172C15.7525 14.672 16.0004 14.7159 16.2099 14.8406L16.3119 14.9106Z" fill="black"/>
<path d="M5.00589 14.9936C5.17807 15.1658 5.2815 15.3949 5.29678 15.6379C5.31206 15.881 5.23814 16.1212 5.08889 16.3136L5.00589 16.4076L4.30589 17.1076C4.12593 17.287 3.88446 17.3911 3.63051 17.3988C3.37656 17.4066 3.12918 17.3174 2.93861 17.1494C2.74805 16.9813 2.62859 16.7471 2.60449 16.4941C2.5804 16.2412 2.65348 15.9886 2.80889 15.7876L2.89189 15.6936L3.59189 14.9936C3.77942 14.8061 4.03373 14.7008 4.29889 14.7008C4.56406 14.7008 4.81836 14.8061 5.00589 14.9936Z" fill="black"/>
<path d="M1.99889 9.00061C2.25377 9.00089 2.49892 9.09849 2.68426 9.27346C2.8696 9.44843 2.98113 9.68756 2.99606 9.94201C3.011 10.1964 2.92822 10.447 2.76463 10.6424C2.60104 10.8379 2.36899 10.9635 2.11589 10.9936L1.99889 11.0006H0.998892C0.744012 11.0003 0.49886 10.9027 0.313524 10.7278C0.128188 10.5528 0.0166572 10.3137 0.00172004 10.0592C-0.0132171 9.80477 0.0695667 9.55423 0.233157 9.35878C0.396747 9.16333 0.628796 9.03771 0.881892 9.00761L0.998892 9.00061H1.99889Z" fill="black"/>
<path d="M18.9989 9.00061C19.2538 9.00089 19.4989 9.09849 19.6843 9.27346C19.8696 9.44843 19.9811 9.68756 19.9961 9.94201C20.011 10.1964 19.9282 10.447 19.7646 10.6424C19.601 10.8379 19.369 10.9635 19.1159 10.9936L18.9989 11.0006H17.9989C17.744 11.0003 17.4989 10.9027 17.3135 10.7278C17.1282 10.5528 17.0167 10.3137 17.0017 10.0592C16.9868 9.80477 17.0696 9.55423 17.2332 9.35878C17.3967 9.16333 17.6288 9.03771 17.8819 9.00761L17.9989 9.00061H18.9989Z" fill="black"/>
<path d="M4.21189 2.81061L4.30589 2.89361L5.00589 3.59361C5.18524 3.77357 5.28937 4.01504 5.29712 4.26899C5.30488 4.52294 5.21568 4.77032 5.04764 4.96089C4.87961 5.15145 4.64534 5.27092 4.39242 5.29501C4.13949 5.3191 3.88688 5.24602 3.68589 5.09061L3.59189 5.00761L2.89189 4.30761C2.71998 4.13529 2.61682 3.90618 2.60176 3.66324C2.58669 3.4203 2.66075 3.18021 2.81005 2.98796C2.95936 2.79572 3.17365 2.66454 3.41276 2.619C3.65187 2.57346 3.89938 2.6167 4.10889 2.74061L4.21189 2.81061Z" fill="black"/>
<path d="M17.1059 2.89361C17.2781 3.0658 17.3815 3.2949 17.3968 3.53793C17.4121 3.78096 17.3381 4.02121 17.1889 4.21361L17.1059 4.30761L16.4059 5.00761C16.2259 5.18696 15.9845 5.29108 15.7305 5.29884C15.4766 5.30659 15.2292 5.2174 15.0386 5.04936C14.848 4.88133 14.7286 4.64706 14.7045 4.39414C14.6804 4.14121 14.7535 3.8886 14.9089 3.68761L14.9919 3.59361L15.6919 2.89361C15.8794 2.70614 16.1337 2.60082 16.3989 2.60082C16.6641 2.60082 16.9184 2.70614 17.1059 2.89361Z" fill="black"/>
<path d="M9.99889 0.000610352C10.2438 0.000642662 10.4802 0.0905665 10.6633 0.253326C10.8463 0.416085 10.9632 0.640359 10.9919 0.88361L10.9989 1.00061V2.00061C10.9986 2.25549 10.901 2.50064 10.726 2.68598C10.5511 2.87132 10.3119 2.98285 10.0575 2.99778C9.80306 3.01272 9.55251 2.92994 9.35706 2.76635C9.16161 2.60276 9.036 2.37071 9.00589 2.11761L8.99889 2.00061V1.00061C8.99889 0.735394 9.10425 0.48104 9.29179 0.293504C9.47932 0.105967 9.73368 0.000610352 9.99889 0.000610352Z" fill="black"/>
<path d="M9.99889 5.00061C10.9786 5.00055 11.9367 5.2883 12.7542 5.82811C13.5718 6.36792 14.2127 7.13601 14.5975 8.03697C14.9822 8.93794 15.0938 9.93208 14.9184 10.8959C14.7429 11.8598 14.2882 12.7508 13.6107 13.4585C12.9332 14.1661 12.0627 14.6591 11.1074 14.8762C10.1521 15.0934 9.15406 15.0251 8.23723 14.6799C7.32039 14.3346 6.52518 13.7277 5.95035 12.9344C5.37552 12.1411 5.04641 11.1964 5.00389 10.2176L4.99889 10.0006L5.00389 9.78361C5.05981 8.49636 5.6105 7.28039 6.54111 6.38927C7.47173 5.49815 8.71043 5.00068 9.99889 5.00061Z" fill="black"/>
</svg>
