<svg width="42" height="16" viewBox="0 0 42 16" fill="none" xmlns="http://www.w3.org/2000/svg">
<path d="M1.66113 15.4688L0 0H3.02344L3.87598 9.76465L4.74609 0H7.62891L8.45508 9.76465L9.28125 0H12.3398L10.6523 15.4688H6.94336L6.16992 8.02441L5.43164 15.4688H1.66113Z" fill="#070808"/>
<path d="M15.9694 15.6094C15.237 15.6094 14.6774 15.4395 14.2907 15.0996C13.9098 14.7598 13.6491 14.2939 13.5084 13.7021C13.3678 13.1104 13.2975 12.4395 13.2975 11.6895C13.2975 10.8867 13.3766 10.2305 13.5348 9.7207C13.693 9.20508 13.9625 8.7832 14.3434 8.45508C14.7301 8.12695 15.2604 7.84863 15.9342 7.62012L17.8854 6.95215V5.59863C17.8854 4.88965 17.6539 4.53516 17.1911 4.53516C16.7692 4.53516 16.5582 4.82227 16.5582 5.39648V6.1875H13.4996C13.4938 6.14062 13.4909 6.08203 13.4909 6.01172C13.4909 5.93555 13.4909 5.85059 13.4909 5.75684C13.4909 4.44434 13.7985 3.51562 14.4137 2.9707C15.0348 2.41992 16.0163 2.14453 17.358 2.14453C18.0612 2.14453 18.6911 2.27051 19.2477 2.52246C19.8043 2.76855 20.2438 3.13477 20.5661 3.62109C20.8942 4.10742 21.0582 4.70801 21.0582 5.42285V15.4688H17.9293V13.9043C17.777 14.4551 17.525 14.877 17.1735 15.1699C16.8219 15.4629 16.4205 15.6094 15.9694 15.6094ZM17.2086 13.166C17.4664 13.166 17.6422 13.0576 17.736 12.8408C17.8297 12.624 17.8766 12.3896 17.8766 12.1377V8.46387C17.443 8.63965 17.1061 8.8623 16.8659 9.13184C16.6256 9.39551 16.5055 9.78516 16.5055 10.3008V11.9971C16.5055 12.7764 16.7399 13.166 17.2086 13.166Z" fill="#070808"/>
<path d="M22.6311 15.4688V2.28516H25.8304V3.75293C25.9827 3.24316 26.2522 2.84473 26.6389 2.55762C27.0257 2.27051 27.512 2.12695 28.0979 2.12695V4.75488C27.8401 4.75488 27.5325 4.78418 27.1751 4.84277C26.8177 4.89551 26.5042 4.97168 26.2346 5.07129C25.9651 5.16504 25.8304 5.27051 25.8304 5.3877V15.4688H22.6311Z" fill="#070808"/>
<path d="M29.2314 15.4688V2.28516H32.3075V3.81445C32.4482 3.27539 32.6884 2.8623 33.0282 2.5752C33.3681 2.28809 33.8661 2.14453 34.5224 2.14453C35.0497 2.14453 35.498 2.26758 35.8671 2.51367C36.2421 2.75391 36.5058 3.07324 36.6581 3.47168C36.8984 3.03809 37.1796 2.70996 37.5019 2.4873C37.83 2.25879 38.2958 2.14453 38.8993 2.14453C39.6318 2.14453 40.1943 2.30273 40.5868 2.61914C40.9853 2.92969 41.2607 3.36328 41.413 3.91992C41.5712 4.4707 41.6503 5.10938 41.6503 5.83594V15.4688H38.5126V5.7832C38.5126 4.93359 38.2958 4.50879 37.8622 4.50879C37.6337 4.50879 37.4579 4.58789 37.3349 4.74609C37.2118 4.89844 37.1269 5.08887 37.08 5.31738C37.0331 5.5459 37.0097 5.77441 37.0097 6.00293V15.4688H33.872V5.7832C33.872 5.50781 33.8368 5.23242 33.7665 4.95703C33.7021 4.68164 33.5322 4.54395 33.2568 4.54395C33.0224 4.54395 32.8407 4.62891 32.7118 4.79883C32.5829 4.96875 32.495 5.17969 32.4482 5.43164C32.4013 5.67773 32.3779 5.9209 32.3779 6.16113V15.4688H29.2314Z" fill="#070808"/>
</svg>
